<svg width="61" height="81" viewBox="0 0 61 81" fill="none" xmlns="http://www.w3.org/2000/svg">
<path d="M37.0722 0H10.1667C4.55177 0 0 4.53312 0 10.125V70.875C0 76.4669 4.55177 81 10.1667 81H50.8333C56.4482 81 61 76.4669 61 70.875V23.8297C61 22.4871 60.4644 21.1994 59.5111 20.25L40.6667 1.48277C39.7134 0.533369 38.4204 0 37.0722 0ZM38.125 17.7188V7.59375L53.375 22.7813H43.2083C40.4009 22.7813 38.125 20.5147 38.125 17.7188ZM12.7083 45.5625C11.3046 45.5625 10.1667 44.4292 10.1667 43.0313C10.1667 41.6333 11.3046 40.5 12.7083 40.5H48.2917C49.6954 40.5 50.8333 41.6333 50.8333 43.0313C50.8333 44.4292 49.6954 45.5625 48.2917 45.5625H12.7083ZM10.1667 53.1563C10.1667 51.7583 11.3046 50.625 12.7083 50.625H48.2917C49.6954 50.625 50.8333 51.7583 50.8333 53.1563C50.8333 54.5542 49.6954 55.6875 48.2917 55.6875H12.7083C11.3046 55.6875 10.1667 54.5542 10.1667 53.1563ZM12.7083 65.8125C11.3046 65.8125 10.1667 64.6792 10.1667 63.2813C10.1667 61.8833 11.3046 60.75 12.7083 60.75H33.0417C34.4454 60.75 35.5833 61.8833 35.5833 63.2813C35.5833 64.6792 34.4454 65.8125 33.0417 65.8125H12.7083Z" fill="#FFB24D"/>
</svg>
