<svg width="61" height="81" viewBox="0 0 61 81" fill="none" xmlns="http://www.w3.org/2000/svg">
<path d="M50.4324 0L10.2019 0C4.64724 0 0.137434 4.53311 0.12898 10.125L0.0371385 70.875C0.0286847 76.4669 4.52479 81 10.0795 81H50.31C55.8647 81 60.3745 76.4669 60.3829 70.875L60.4748 10.125C60.4832 4.53312 55.9871 0 50.4324 0ZM15.2001 20.25L45.373 20.25C46.7617 20.25 47.8857 21.3833 47.8836 22.7813C47.8815 24.1792 46.754 25.3125 45.3654 25.3125L15.1925 25.3125C13.8038 25.3125 12.6798 24.1792 12.6819 22.7813C12.684 21.3833 13.8114 20.25 15.2001 20.25ZM12.6666 32.9062C12.6687 31.5083 13.7961 30.375 15.1848 30.375L45.3577 30.375C46.7464 30.375 47.8704 31.5083 47.8683 32.9062C47.8662 34.3042 46.7387 35.4375 45.35 35.4375H15.1772C13.7885 35.4375 12.6645 34.3042 12.6666 32.9062ZM15.1695 40.5H45.3424C46.7311 40.5 47.8551 41.6333 47.853 43.0313C47.8509 44.4292 46.7234 45.5625 45.3347 45.5625H15.1619C13.7732 45.5625 12.6492 44.4292 12.6513 43.0313C12.6534 41.6333 13.7808 40.5 15.1695 40.5ZM15.1542 50.625H30.2406C31.6293 50.625 32.7533 51.7583 32.7512 53.1562C32.7491 54.5542 31.6217 55.6875 30.233 55.6875H15.1465C13.7579 55.6875 12.6338 54.5542 12.636 53.1562C12.6381 51.7583 13.7655 50.625 15.1542 50.625Z" fill="#6AD16A"/>
</svg>
