<svg width="82" height="80" viewBox="0 0 82 80" fill="none" xmlns="http://www.w3.org/2000/svg">
<ellipse cx="46.9231" cy="38.8461" rx="6.15385" ry="5.76923" fill="#FFB24D"/>
<circle cx="53.0769" cy="19.2308" r="6.15385" fill="#FFB24D"/>
<ellipse cx="62.3077" cy="6.53846" rx="6.15385" ry="6.53846" fill="#FFB24D"/>
<path fill-rule="evenodd" clip-rule="evenodd" d="M56.1893 28.141C54.723 28.9919 52.8843 29.4982 50.8882 29.4982C46.9312 29.4982 43.5926 27.5086 42.5477 24.7883C41.367 24.696 40.168 24.6487 38.9539 24.6487C34.3167 24.6487 29.8994 25.3389 25.8826 26.5869C25.872 26.5541 25.8608 26.5212 25.8488 26.4882C24.3511 22.341 14.5592 19.409 9.85053 18.4614C10.3044 21.2485 11.4163 27.0567 12.2333 27.9932C13.0495 28.9289 13.5939 31.7231 13.7646 33.0067C10.3756 35.8328 7.85739 39.234 6.51745 42.9848C4.49653 41.8461 0.489834 42.709 0.489834 42.709C-1.04192 44.214 1.34081 53.0769 3.21295 55.0835C4.43745 56.3961 5.82122 56.2331 6.65738 55.8558C8.32234 60.2279 11.5945 64.1083 15.9775 67.1332V79.9999H24.1469C25.6219 79.8327 28.606 78.8293 28.7421 76.1537C28.8224 74.5769 28.8277 73.426 28.807 72.6668C32.008 73.4111 35.417 73.8126 38.9539 73.8126C42.8347 73.8126 46.5616 73.3292 50.0285 72.4401C50.0058 73.1981 50.0093 74.3679 50.0916 75.9865C50.2278 78.6621 53.2119 79.6655 54.6869 79.8327H62.8562V66.4692C68.8095 62.0326 72.4823 55.9461 72.4823 49.2307C72.4823 47.2109 72.15 45.248 71.5234 43.3698C71.8252 43.6055 72.1598 43.8109 72.5101 43.9724C73.1528 44.2688 73.9279 44.4534 74.7055 44.3254C75.5244 44.1906 76.2603 43.7201 76.7505 42.8773C77.686 41.2687 77.2678 39.522 76.4749 38.1527C76.1005 37.5062 75.6202 36.8981 75.0885 36.3579C75.1297 36.3402 75.1709 36.324 75.212 36.3094C75.6701 36.1472 76.2165 36.1444 76.9157 36.5504C78.7496 37.6152 79.3676 38.382 79.5393 38.8639C79.674 39.2422 79.5962 39.6404 79.1432 40.308L80.7982 41.431C81.3664 40.5936 81.8843 39.4868 81.4233 38.1928C80.9993 37.0025 79.8303 35.9299 77.9199 34.8208C76.747 34.1398 75.5914 34.0534 74.5444 34.4242C74.1469 34.5649 73.7813 34.7656 73.4471 35.0048C73.3545 34.944 73.262 34.8856 73.1698 34.8298C71.8993 34.0616 70.2383 34.2901 68.9493 34.6569C68.1732 34.8777 67.4164 35.1825 66.762 35.493C64.0172 32.5123 60.4043 29.9966 56.1893 28.141ZM70.7282 38.7309C70.4896 39.2975 70.3077 39.8519 70.2053 40.3081C69.611 39.19 68.9083 38.1117 68.1066 37.08C68.5466 36.8916 69.0203 36.716 69.4966 36.5805C70.6107 36.2635 71.4756 36.2409 71.9974 36.4703C71.4557 37.2005 71.0319 38.0093 70.7282 38.7309ZM72.5715 39.5069C72.2839 40.1898 72.1418 40.7388 72.1143 40.9819L72.1145 40.9802C72.1148 40.9792 72.115 40.9805 72.1157 40.9842C72.1205 41.0113 72.148 41.165 72.3667 41.4245C72.5995 41.7008 72.9525 41.974 73.3477 42.1563C73.7475 42.3406 74.1106 42.3964 74.3807 42.352C74.6096 42.3143 74.831 42.1995 75.0216 41.8718C75.4477 41.1392 75.3553 40.2103 74.7441 39.1549C74.4421 38.6334 74.0378 38.1308 73.587 37.6845C73.1713 38.2496 72.8269 38.9003 72.5715 39.5069Z" fill="#FFB24D"/>
</svg>
