<svg width="97" height="80" viewBox="0 0 97 80" fill="none" xmlns="http://www.w3.org/2000/svg">
<path d="M50.1038 1.6903C45.971 0.582934 41.707 3.08974 40.5807 7.29322L39.9007 9.831L22.4369 5.15161C18.3034 4.04403 14.0396 6.55309 12.9135 10.7558L11.032 17.7776L46.2608 38.2563C47.4326 38.9375 48.7624 39.2938 50.1178 39.2898L90.8662 39.1691L92.7477 32.1473C93.8738 27.9446 91.4358 23.6398 87.3022 22.5322L69.8385 17.8528L70.5185 15.315C71.6448 11.1116 69.2055 6.80858 65.0727 5.70121L50.1038 1.6903ZM48.7445 6.76338L63.7134 10.7743C65.092 11.1437 65.9028 12.5823 65.5277 13.9824L64.8489 16.5159L44.8903 11.168L45.5703 8.63019C45.9455 7.23011 47.3658 6.39397 48.7445 6.76338Z" fill="#6AD16A"/>
<path d="M2.03888 51.3404C0.912777 55.5431 3.3508 59.8479 7.48435 60.9555L72.3496 78.3361C76.4832 79.4436 80.747 76.9346 81.8731 72.7319L89.5544 44.0649L47.4269 44.1897C46.9751 44.191 46.5318 44.0723 46.1413 43.8452L9.72017 22.6734L2.03888 51.3404Z" fill="#6AD16A"/>
</svg>
