<svg width="139" height="149" viewBox="0 0 139 149" fill="none" xmlns="http://www.w3.org/2000/svg">
<path d="M0.259519 40.8494L0.259521 76.4652C0.259521 83.8978 6.28485 89.9231 13.7175 89.9231L94.4651 89.9231C101.898 89.9231 107.923 83.8978 107.923 76.4651L107.923 22.6334C107.923 15.2008 101.898 9.17543 94.4651 9.17543L31.9335 9.17543C30.1489 9.17543 28.4373 9.88437 27.1754 11.1463L2.23039 36.0913C0.968463 37.3532 0.259519 39.0648 0.259519 40.8494ZM23.8109 39.4558L10.353 39.4558L30.5399 19.2689L30.5399 32.7268C30.5399 36.4431 27.5272 39.4558 23.8109 39.4558ZM60.8203 73.1007C60.8203 74.9588 59.3139 76.4651 57.4558 76.4651C55.5976 76.4651 54.0913 74.9588 54.0913 73.1007L54.0913 25.9979C54.0913 24.1397 55.5976 22.6334 57.4558 22.6334C59.3139 22.6334 60.8203 24.1397 60.8203 25.9979L60.8203 73.1007ZM70.9137 76.4651C69.0556 76.4651 67.5492 74.9588 67.5492 73.1007L67.5492 25.9979C67.5492 24.1397 69.0556 22.6334 70.9137 22.6334C72.7719 22.6334 74.2782 24.1397 74.2782 25.9979L74.2782 73.1007C74.2782 74.9588 72.7719 76.4651 70.9137 76.4651ZM87.7362 73.1007C87.7362 74.9588 86.2298 76.4651 84.3717 76.4651C82.5135 76.4651 81.0072 74.9588 81.0072 73.1007L81.0072 46.1848C81.0072 44.3266 82.5135 42.8203 84.3717 42.8203C86.2298 42.8203 87.7362 44.3266 87.7362 46.1848L87.7362 73.1007Z" fill="#FFB24D"/>
<g filter="url(#filter0_d_27_44)">
<path fill-rule="evenodd" clip-rule="evenodd" d="M95.2033 68.1565C95.2033 74.3865 93.1839 80.1439 89.7653 84.8074C89.9381 84.9352 90.1037 85.0774 90.2602 85.2343L106.907 101.914C108.595 103.605 108.595 106.348 106.907 108.04C105.219 109.731 102.481 109.731 100.793 108.04L84.1461 91.3603C83.9896 91.2035 83.8476 91.0376 83.7201 90.8644L83.7238 90.8616C79.0687 94.2887 73.3211 96.3131 67.1017 96.3131C51.5815 96.3131 39 83.707 39 68.1565C39 52.6061 51.5815 40 67.1017 40C82.6218 40 95.2033 52.6061 95.2033 68.1565Z" fill="#F3F3F3" fill-opacity="0.3" shape-rendering="crispEdges"/>
</g>
<defs>
<filter id="filter0_d_27_44" x="9" y="19" width="129.173" height="129.308" filterUnits="userSpaceOnUse" color-interpolation-filters="sRGB">
<feFlood flood-opacity="0" result="BackgroundImageFix"/>
<feColorMatrix in="SourceAlpha" type="matrix" values="0 0 0 0 0 0 0 0 0 0 0 0 0 0 0 0 0 0 127 0" result="hardAlpha"/>
<feOffset dy="9"/>
<feGaussianBlur stdDeviation="15"/>
<feComposite in2="hardAlpha" operator="out"/>
<feColorMatrix type="matrix" values="0 0 0 0 0.763333 0 0 0 0 0.538243 0 0 0 0 0.242995 0 0 0 1 0"/>
<feBlend mode="normal" in2="BackgroundImageFix" result="effect1_dropShadow_27_44"/>
<feBlend mode="normal" in="SourceGraphic" in2="effect1_dropShadow_27_44" result="shape"/>
</filter>
</defs>
</svg>
