<svg width="166" height="155" viewBox="0 0 166 155" fill="none" xmlns="http://www.w3.org/2000/svg">
<path d="M55.375 28C50.6125 28 46.75 31.9238 46.75 36.7678V39.6923H26.625C21.8615 39.6923 18 43.6184 18 48.4615V56.5534L61.7777 68.4227C63.2338 68.8175 64.7662 68.8175 66.2223 68.4227L110 56.5534V48.4615C110 43.6184 106.138 39.6923 101.375 39.6923L81.25 39.6923V36.7678C81.25 31.9238 77.3875 28 72.625 28H55.375ZM55.375 33.8462H72.625C74.2137 33.8462 75.5 35.1594 75.5 36.7728V39.6923H52.5V36.7678C52.5 35.1544 53.7863 33.8462 55.375 33.8462Z" fill="#6AD16A"/>
<path d="M18 95.2308C18 100.074 21.8615 104 26.625 104H101.375C106.138 104 110 100.074 110 95.2308V62.1953L64.7408 74.4662C64.2554 74.5978 63.7446 74.5978 63.2592 74.4662L18 62.1953V95.2308Z" fill="#6AD16A"/>
<g filter="url(#filter0_d_124_652)">
<path d="M54.2864 34.6546C50.1455 36.9785 48.7027 42.2762 51.0674 46.4898L52.495 49.0337L34.997 58.8537C30.8553 61.1781 29.4144 66.4775 31.7787 70.6902L35.7288 77.7289L79.5862 66.6919C81.045 66.3248 82.3774 65.577 83.4507 64.5231L115.72 32.8372L111.77 25.7985C109.405 21.5857 104.131 20.0549 99.9896 22.3792L82.4916 32.1993L81.064 29.6554C78.6993 25.4419 73.4255 23.9135 69.2847 26.2374L54.2864 34.6546ZM57.1403 39.7398L72.1386 31.3226C73.5199 30.5474 75.2794 31.0621 76.067 32.4655L77.4922 35.005L57.4944 46.2279L56.0668 43.6841C55.2792 42.2806 55.7589 40.5151 57.1403 39.7398Z" fill="#F3F3F3" fill-opacity="0.3" shape-rendering="crispEdges"/>
<path d="M54.6098 111.372C56.974 115.585 62.2481 117.116 66.3898 114.791L131.382 78.317C135.524 75.9926 136.965 70.6932 134.601 66.4805L118.474 37.7447L85.1128 70.503C84.7551 70.8543 84.3109 71.1035 83.8247 71.2259L38.483 82.6364L54.6098 111.372Z" fill="#F3F3F3" fill-opacity="0.3" shape-rendering="crispEdges"/>
</g>
<defs>
<filter id="filter0_d_124_652" x="0.641113" y="0.293701" width="165.097" height="154.583" filterUnits="userSpaceOnUse" color-interpolation-filters="sRGB">
<feFlood flood-opacity="0" result="BackgroundImageFix"/>
<feColorMatrix in="SourceAlpha" type="matrix" values="0 0 0 0 0 0 0 0 0 0 0 0 0 0 0 0 0 0 127 0" result="hardAlpha"/>
<feOffset dy="9"/>
<feGaussianBlur stdDeviation="15"/>
<feComposite in2="hardAlpha" operator="out"/>
<feColorMatrix type="matrix" values="0 0 0 0 0.30855 0 0 0 0 0.605 0 0 0 0 0.30855 0 0 0 0.5 0"/>
<feBlend mode="normal" in2="BackgroundImageFix" result="effect1_dropShadow_124_652"/>
<feBlend mode="normal" in="SourceGraphic" in2="effect1_dropShadow_124_652" result="shape"/>
</filter>
</defs>
</svg>
