<svg width="150" height="159" viewBox="0 0 150 159" fill="none" xmlns="http://www.w3.org/2000/svg">
<path d="M53.2975 8.16449L10.6595 28.8222C4.77242 31.6744 2.32041 38.7945 5.18279 44.7253L36.2795 109.158C39.1419 115.089 46.2347 117.584 52.1218 114.732L94.7598 94.0745C100.647 91.2223 103.099 84.1022 100.236 78.1714L69.1398 13.7388C66.2774 7.80798 59.1846 5.31226 53.2975 8.16449ZM26.3548 47.7175L58.3333 32.2242C59.8051 31.5112 61.5783 32.1351 62.2939 33.6178C63.0095 35.1005 62.3965 36.8805 60.9247 37.5936L28.9462 53.0868C27.4744 53.7999 25.7012 53.176 24.9856 51.6933C24.27 50.2105 24.883 48.4305 26.3548 47.7175ZM30.1684 62.432C29.4528 60.9493 30.0658 59.1693 31.5376 58.4562L63.5161 42.963C64.9879 42.2499 66.7611 42.8738 67.4767 44.3566C68.1923 45.8393 67.5793 47.6193 66.1075 48.3323L34.129 63.8256C32.6572 64.5387 30.884 63.9147 30.1684 62.432ZM36.7204 69.195L68.6989 53.7017C70.1706 52.9887 71.9439 53.6126 72.6594 55.0953C73.375 56.578 72.762 58.358 71.2903 59.0711L39.3118 74.5644C37.84 75.2774 36.0668 74.6535 35.3512 73.1708C34.6356 71.6881 35.2486 69.908 36.7204 69.195ZM41.9032 79.9337L57.8924 72.1871C59.3642 71.4741 61.1374 72.098 61.853 73.5807C62.5686 75.0634 61.9556 76.8434 60.4838 77.5565L44.4946 85.3031C43.0228 86.0162 41.2496 85.3922 40.534 83.9095C39.8184 82.4268 40.4314 80.6468 41.9032 79.9337Z" fill="#6AD16A"/>
<g filter="url(#filter0_d_27_33)">
<path fill-rule="evenodd" clip-rule="evenodd" d="M61.3794 21.6206H108.276C114.751 21.6206 120 27.1206 120 33.9051V107.612C120 114.397 114.751 119.896 108.276 119.896H61.3794C54.9044 119.896 49.6553 114.397 49.6553 107.612V33.9051C49.6553 27.1206 54.9044 21.6206 61.3794 21.6206Z" fill="#F3F3F3" fill-opacity="0.3" shape-rendering="crispEdges"/>
</g>
<defs>
<filter id="filter0_d_27_33" x="19.6553" y="0.620605" width="130.345" height="158.276" filterUnits="userSpaceOnUse" color-interpolation-filters="sRGB">
<feFlood flood-opacity="0" result="BackgroundImageFix"/>
<feColorMatrix in="SourceAlpha" type="matrix" values="0 0 0 0 0 0 0 0 0 0 0 0 0 0 0 0 0 0 127 0" result="hardAlpha"/>
<feOffset dy="9"/>
<feGaussianBlur stdDeviation="15"/>
<feComposite in2="hardAlpha" operator="out"/>
<feColorMatrix type="matrix" values="0 0 0 0 0.30855 0 0 0 0 0.605 0 0 0 0 0.30855 0 0 0 0.5 0"/>
<feBlend mode="normal" in2="BackgroundImageFix" result="effect1_dropShadow_27_33"/>
<feBlend mode="normal" in="SourceGraphic" in2="effect1_dropShadow_27_33" result="shape"/>
</filter>
</defs>
</svg>
