<svg width="136" height="155" viewBox="0 0 136 155" fill="none" xmlns="http://www.w3.org/2000/svg">
<path d="M51.5209 7.99227L10.3042 27.9613C4.61334 30.7185 2.24306 37.6013 5.01003 43.3344L35.0702 105.619C37.8372 111.352 44.6936 113.765 50.3844 111.008L91.6011 91.0387C97.292 88.2815 99.6622 81.3987 96.8953 75.6656L66.8351 13.3808C64.0681 7.64764 57.2117 5.23511 51.5209 7.99227ZM25.4763 46.2268L56.3889 31.25C57.8116 30.5607 59.5257 31.1638 60.2174 32.5971C60.9091 34.0304 60.3166 35.7511 58.8939 36.4404L27.9813 51.4172C26.5586 52.1065 24.8445 51.5034 24.1528 50.0701C23.461 48.6368 24.0536 46.9161 25.4763 46.2268ZM29.1628 60.4509C28.4711 59.0176 29.0636 57.2969 30.4864 56.6076L61.3989 41.6308C62.8216 40.9415 64.5357 41.5446 65.2274 42.9779C65.9192 44.4112 65.3266 46.1319 63.9039 46.8212L32.9914 61.798C31.5687 62.4873 29.8546 61.8842 29.1628 60.4509ZM35.4964 66.9884L66.4089 52.0116C67.8316 51.3223 69.5457 51.9254 70.2375 53.3587C70.9292 54.792 70.3366 56.5127 68.9139 57.202L38.0014 72.1788C36.5787 72.8681 34.8646 72.265 34.1728 70.8317C33.4811 69.3984 34.0737 67.6777 35.4964 66.9884ZM40.5064 77.3692L55.9627 69.8808C57.3854 69.1915 59.0995 69.7946 59.7912 71.2279C60.483 72.6612 59.8904 74.3819 58.4677 75.0712L43.0114 82.5596C41.5887 83.2489 39.8746 82.6458 39.1829 81.2125C38.4911 79.7792 39.0837 78.0585 40.5064 77.3692Z" fill="#6AD16A"/>
<g filter="url(#filter0_d_124_683)">
<path fill-rule="evenodd" clip-rule="evenodd" d="M49.3333 21H94.6667C100.926 21 106 26.3166 106 32.875V104.125C106 110.683 100.926 116 94.6667 116H49.3333C43.0741 116 38 110.683 38 104.125V32.875C38 26.3166 43.0741 21 49.3333 21Z" fill="#F3F3F3" fill-opacity="0.3" shape-rendering="crispEdges"/>
</g>
<defs>
<filter id="filter0_d_124_683" x="8" y="0" width="128" height="155" filterUnits="userSpaceOnUse" color-interpolation-filters="sRGB">
<feFlood flood-opacity="0" result="BackgroundImageFix"/>
<feColorMatrix in="SourceAlpha" type="matrix" values="0 0 0 0 0 0 0 0 0 0 0 0 0 0 0 0 0 0 127 0" result="hardAlpha"/>
<feOffset dy="9"/>
<feGaussianBlur stdDeviation="15"/>
<feComposite in2="hardAlpha" operator="out"/>
<feColorMatrix type="matrix" values="0 0 0 0 0.30855 0 0 0 0 0.605 0 0 0 0 0.30855 0 0 0 0.5 0"/>
<feBlend mode="normal" in2="BackgroundImageFix" result="effect1_dropShadow_124_683"/>
<feBlend mode="normal" in="SourceGraphic" in2="effect1_dropShadow_124_683" result="shape"/>
</filter>
</defs>
</svg>
