<svg width="191" height="160" viewBox="0 0 191 160" fill="none" xmlns="http://www.w3.org/2000/svg">
<ellipse cx="104" cy="63.5" rx="8" ry="7.5" fill="#FFB24D"/>
<circle cx="112" cy="38" r="8" fill="#FFB24D"/>
<ellipse cx="120" cy="21.5" rx="8" ry="8.5" fill="#FFB24D"/>
<g filter="url(#filter0_d_124_3)">
<path fill-rule="evenodd" clip-rule="evenodd" d="M120.459 37.5122C118.099 38.8821 115.139 39.6971 111.925 39.6971C105.555 39.6971 100.18 36.4942 98.4976 32.1147C96.5968 31.9662 94.6665 31.89 92.7119 31.89C85.2465 31.89 78.1351 33.0012 71.6685 35.0102C71.6514 34.9575 71.6333 34.9045 71.6141 34.8513C69.2029 28.1747 53.439 23.4545 45.8584 21.929C46.589 26.4159 48.3791 35.7666 49.6943 37.2742C51.0084 38.7805 51.8848 43.2791 52.1596 45.3454C46.7036 49.8952 42.6496 55.3708 40.4924 61.4092C37.2389 59.5761 30.7886 60.9652 30.7886 60.9652C28.3226 63.3881 32.1586 77.6565 35.1725 80.8871C37.1438 83 39.3715 82.7377 40.7176 82.1303C43.398 89.169 48.6659 95.4162 55.7223 100.286V121H68.8741C71.2487 120.731 76.0528 119.115 76.272 114.808C76.4012 112.27 76.4098 110.417 76.3765 109.194C81.5296 110.393 87.0178 111.039 92.7119 111.039C98.9597 111.039 104.96 110.261 110.541 108.829C110.504 110.05 110.51 111.933 110.643 114.539C110.862 118.846 115.666 120.462 118.041 120.731H131.192V99.2169C140.776 92.0743 146.689 82.2757 146.689 71.4646C146.689 67.772 146 64.1975 144.709 60.8066C145.323 61.4663 146.123 62.0456 146.99 62.4453C147.95 62.8883 149.072 63.1462 150.17 62.9657C151.308 62.7783 152.336 62.1293 153.034 60.9295C154.384 58.607 153.811 56.0444 152.589 53.9356C151.882 52.7132 150.922 51.5744 149.871 50.6084C150.199 50.3856 150.536 50.2095 150.88 50.0876C151.798 49.7629 152.863 49.7856 154.133 50.523C157.109 52.2507 158.272 53.5785 158.625 54.5704C158.942 55.4586 158.682 56.3157 157.918 57.4424L159.573 58.5653C160.452 57.269 161.152 55.7032 160.509 53.8993C159.903 52.199 158.189 50.5654 155.137 48.7934C153.393 47.7809 151.719 47.669 150.213 48.2024C149.5 48.4548 148.85 48.8426 148.262 49.3122C148.002 49.1298 147.74 48.9595 147.481 48.8024C145.67 47.7079 143.222 48.0043 141.169 48.5887C140.02 48.9154 138.896 49.3612 137.909 49.8207C133.44 44.8152 127.467 40.5972 120.459 37.5122ZM143.504 57.8914C143.499 57.9331 143.495 57.9747 143.493 58.0162C142.354 55.7059 140.931 53.4955 139.254 51.4079C140.026 51.0706 140.867 50.7538 141.716 50.5123C143.699 49.948 145.407 49.8855 146.446 50.5139C146.57 50.5888 146.694 50.6673 146.818 50.7491C146.752 50.8294 146.687 50.9104 146.622 50.9918C145.68 52.1905 144.945 53.5695 144.428 54.7975C143.917 56.0103 143.587 57.1525 143.504 57.8914ZM146.271 55.5735C145.797 56.6994 145.544 57.6436 145.491 58.1162C145.468 58.3237 145.577 58.744 146.037 59.2903C146.472 59.8072 147.114 60.3003 147.827 60.6292C148.545 60.9602 149.255 61.0893 149.845 60.9922C150.393 60.902 150.907 60.6087 151.305 59.924C152.146 58.4775 151.898 56.7327 150.859 54.9379C150.234 53.8591 149.36 52.8362 148.401 51.9745C148.331 52.0572 148.263 52.1417 148.195 52.2282C147.391 53.2505 146.739 54.4626 146.271 55.5735Z" fill="#F3F3F3" fill-opacity="0.3" shape-rendering="crispEdges"/>
</g>
<defs>
<filter id="filter0_d_124_3" x="0" y="0.928955" width="190.759" height="159.071" filterUnits="userSpaceOnUse" color-interpolation-filters="sRGB">
<feFlood flood-opacity="0" result="BackgroundImageFix"/>
<feColorMatrix in="SourceAlpha" type="matrix" values="0 0 0 0 0 0 0 0 0 0 0 0 0 0 0 0 0 0 127 0" result="hardAlpha"/>
<feOffset dy="9"/>
<feGaussianBlur stdDeviation="15"/>
<feComposite in2="hardAlpha" operator="out"/>
<feColorMatrix type="matrix" values="0 0 0 0 0.763333 0 0 0 0 0.538243 0 0 0 0 0.242995 0 0 0 1 0"/>
<feBlend mode="normal" in2="BackgroundImageFix" result="effect1_dropShadow_124_3"/>
<feBlend mode="normal" in="SourceGraphic" in2="effect1_dropShadow_124_3" result="shape"/>
</filter>
</defs>
</svg>
