<svg width="169" height="152" viewBox="0 0 169 152" fill="none" xmlns="http://www.w3.org/2000/svg">
<path d="M54.502 10.5122C49.4685 10.5122 45.3862 14.6593 45.3862 19.779V22.8699H24.1159C19.0813 22.8699 15 27.0195 15 32.1382V40.6906L61.2691 53.2354C62.8081 53.6526 64.4277 53.6526 65.9667 53.2354L112.236 40.6906V32.1382C112.236 27.0195 108.154 22.8699 103.12 22.8699L81.8496 22.8699V19.779C81.8496 14.6593 77.7673 10.5122 72.7337 10.5122L54.502 10.5122ZM54.502 16.6911L72.7337 16.6911C74.4129 16.6911 75.7724 18.079 75.7724 19.7843V22.8699L51.4634 22.8699V19.779C51.4634 18.0737 52.8229 16.6911 54.502 16.6911Z" fill="#6AD16A"/>
<path d="M15 81.5691C15 86.6879 19.0813 90.8374 24.1159 90.8374H103.12C108.154 90.8374 112.236 86.6879 112.236 81.5691V46.6536L64.4008 59.6229C63.8878 59.762 63.3479 59.762 62.8349 59.6229L15 46.6536L15 81.5691Z" fill="#6AD16A"/>
<g filter="url(#filter0_d_27_35)">
<path d="M62.9656 26.7282C58.1465 28.1293 55.3931 33.2378 56.8189 38.1414L57.6797 41.1019L37.3158 47.0228C32.4958 48.4243 29.744 53.5348 31.1695 58.4375L33.5512 66.629L81.342 65.7648C82.9316 65.736 84.4823 65.2852 85.8395 64.4571L126.643 39.5621L124.262 31.3706C122.836 26.4679 117.773 23.6295 112.953 25.031L92.5892 30.9518L91.7284 27.9913C90.3026 23.0877 85.2394 20.252 80.4204 21.6531L62.9656 26.7282ZM64.6863 32.6463L82.1411 27.5712C83.7487 27.1038 85.4367 28.0548 85.9116 29.6881L86.7709 32.6435L63.4979 39.4103L62.6371 36.4498C62.1622 34.8165 63.0787 33.1137 64.6863 32.6463Z" fill="#F3F3F3" fill-opacity="0.3" shape-rendering="crispEdges"/>
<path d="M44.9353 105.782C46.3607 110.685 51.4237 113.524 56.2437 112.122L131.881 90.1303C136.701 88.7288 139.453 83.6183 138.027 78.7156L128.304 45.2734L86.1191 71.0109C85.6667 71.287 85.1499 71.4372 84.62 71.4468L35.2118 72.3403L44.9353 105.782Z" fill="#F3F3F3" fill-opacity="0.3" shape-rendering="crispEdges"/>
</g>
<defs>
<filter id="filter0_d_27_35" x="0.793457" y="0.295166" width="167.61" height="151.185" filterUnits="userSpaceOnUse" color-interpolation-filters="sRGB">
<feFlood flood-opacity="0" result="BackgroundImageFix"/>
<feColorMatrix in="SourceAlpha" type="matrix" values="0 0 0 0 0 0 0 0 0 0 0 0 0 0 0 0 0 0 127 0" result="hardAlpha"/>
<feOffset dy="9"/>
<feGaussianBlur stdDeviation="15"/>
<feComposite in2="hardAlpha" operator="out"/>
<feColorMatrix type="matrix" values="0 0 0 0 0.30855 0 0 0 0 0.605 0 0 0 0 0.30855 0 0 0 0.5 0"/>
<feBlend mode="normal" in2="BackgroundImageFix" result="effect1_dropShadow_27_35"/>
<feBlend mode="normal" in="SourceGraphic" in2="effect1_dropShadow_27_35" result="shape"/>
</filter>
</defs>
</svg>
